# xmcd
#
# Track frame offsets:
#	150
#	15718
#	31236
#	43495
#	61819
#	79306
#	94410
#	106258
#	125580
#	142426
#	156857
#	176481
#	186584
#
# Disc length: 2657 seconds
#
# Revision: 1
# Processed by: cddbd v1.5.2PL0 Copyright (c) Steve Scherf et al.
# Submitted via: audiograbber 1.83.01
#
DISCID=bf0a5f0d
DTITLE=Kevin Bloody Wilson - Kev's Krissmas Volume 2
DYEAR=2018
DGENRE=Comedy
TTITLE0=Silent Wife
TTITLE1=The Tokeable Krissmas Tree
TTITLE2=Deck The Halls
TTITLE3=Away With A Stranger
TTITLE4=Dingle Berries
TTITLE5=Oh Cum By The Face-full
TTITLE6=Go Tell It To A Mountain Goat
TTITLE7=Santa's Cunt List
TTITLE8=Drrrunk
TTITLE9=A Hoe Hoe Hoe For Christmas
TTITLE10=A Lot Like Syphilis
TTITLE11=Santa Claus Was Goin To Town
TTITLE12=All My Krissmases Cum At Once
EXTD=
EXTT0=
EXTT1=
EXTT2=
EXTT3=
EXTT4=
EXTT5=
EXTT6=
EXTT7=
EXTT8=
EXTT9=
EXTT10=
EXTT11=
EXTT12=
PLAYORDER=
